<svg width="21" height="20" viewBox="0 0 21 20" fill="none" xmlns="http://www.w3.org/2000/svg">
<path d="M19 8.975V6C19 5.46957 18.7893 4.96086 18.4142 4.58579C18.0391 4.21072 17.5304 4 17 4H11V2.688C11.305 2.414 11.5 2.02 11.5 1.578C11.5 1.18018 11.342 0.798647 11.0607 0.517343C10.7794 0.236038 10.3978 0.0780029 10 0.0780029C9.60218 0.0780029 9.22064 0.236038 8.93934 0.517343C8.65804 0.798647 8.5 1.18018 8.5 1.578C8.5 2.02 8.695 2.414 9 2.688V4H3C2.46957 4 1.96086 4.21072 1.58579 4.58579C1.21071 4.96086 1 5.46957 1 6V8.998L0.928 9.003C0.675888 9.02097 0.439955 9.13382 0.26775 9.31883C0.095544 9.50384 -0.000132994 9.74725 1.38752e-07 10V12C1.38752e-07 12.2652 0.105357 12.5196 0.292893 12.7071C0.48043 12.8946 0.734784 13 1 13V18C1 18.5304 1.21071 19.0391 1.58579 19.4142C1.96086 19.7893 2.46957 20 3 20H17C17.5304 20 18.0391 19.7893 18.4142 19.4142C18.7893 19.0391 19 18.5304 19 18V13C19.2652 13 19.5196 12.8946 19.7071 12.7071C19.8946 12.5196 20 12.2652 20 12V10.062C20.0116 9.90681 19.9869 9.75104 19.928 9.607C19.726 9.119 19.293 9.002 19 8.975ZM5 10C5 8.896 5.672 8 6.5 8C7.328 8 8 8.896 8 10C8 11.104 7.328 12 6.5 12C5.672 12 5 11.104 5 10ZM13.998 16C12.997 15.997 6 16 6 16V14C6 14 13.001 13.998 14.002 14L13.998 16ZM13.5 12C12.672 12 12 11.104 12 10C12 8.896 12.672 8 13.5 8C14.328 8 15 8.896 15 10C15 11.104 14.328 12 13.5 12Z" fill="#919EAB"/>
</svg>
