<svg width="20" height="20" viewBox="0 0 20 20" fill="none" xmlns="http://www.w3.org/2000/svg">
<path d="M14.9999 10C16.0872 9.99982 17.1448 9.6452 18.0125 8.98987C18.8802 8.33455 19.5105 7.41425 19.8081 6.36843C20.1057 5.32262 20.0543 4.20831 19.6616 3.19436C19.2689 2.18041 18.5564 1.32209 17.6321 0.749489C16.7078 0.176885 15.622 -0.0787969 14.5392 0.0211906C13.4565 0.121178 12.4359 0.571385 11.6321 1.30358C10.8282 2.03578 10.285 3.01006 10.0846 4.07878C9.88429 5.14749 10.0378 6.25238 10.5219 7.22601C10.6134 7.40279 10.6372 7.6069 10.5889 7.80001L10.2909 8.91301C10.2614 9.0232 10.2614 9.13922 10.2909 9.24941C10.3205 9.3596 10.3785 9.46008 10.4591 9.54074C10.5398 9.62141 10.6403 9.67942 10.7505 9.70896C10.8607 9.7385 10.9767 9.73851 11.0869 9.70901L12.1999 9.41101C12.393 9.36267 12.5971 9.38649 12.7739 9.47801C13.4653 9.82229 14.2274 10.001 14.9999 10Z" fill="#919EAB"/>
<path d="M6.03766 5.31598L6.68666 6.47898C7.27166 7.52898 7.03666 8.90498 6.11466 9.82798C6.11466 9.82798 4.99466 10.947 7.02466 12.976C9.05166 15.003 10.1717 13.886 10.1717 13.886C11.0947 12.963 12.4717 12.728 13.5207 13.313L14.6837 13.963C16.2687 14.847 16.4557 17.069 15.0627 18.463C14.2257 19.299 13.1997 19.951 12.0667 19.993C10.1587 20.066 6.91766 19.583 3.66666 16.333C0.416661 13.082 -0.0663393 9.84098 0.0066607 7.93298C0.0496607 6.79998 0.700661 5.77398 1.53666 4.93698C2.93066 3.54398 5.15266 3.73098 6.03666 5.31698L6.03766 5.31598Z" fill="#919EAB"/>
</svg>
