<svg width="20" height="22" viewBox="0 0 20 22" fill="none" xmlns="http://www.w3.org/2000/svg">
<path d="M14.1247 8.75006C14.2972 8.75006 14.4672 8.75631 14.6372 8.76881C14.7097 8.56881 14.7497 8.35131 14.7497 8.12506V3.12506C14.7497 2.62777 14.5522 2.15086 14.2006 1.79923C13.8489 1.4476 13.372 1.25006 12.8747 1.25006H9.12473V0.625056C9.12826 0.542036 9.11452 0.459186 9.08436 0.381756C9.0542 0.304326 9.00829 0.234005 8.94953 0.175248C8.89078 0.116491 8.82046 0.0705784 8.74303 0.0404209C8.6656 0.0102635 8.58275 -0.0034819 8.49973 5.57447e-05C8.15473 5.57447e-05 7.87473 0.287556 7.87473 0.625056V1.25006H4.12473C3.62745 1.25006 3.15053 1.4476 2.7989 1.79923C2.44727 2.15086 2.24973 2.62777 2.24973 3.12506V8.12506C2.24973 8.62234 2.44727 9.09925 2.7989 9.45088C3.15053 9.80251 3.62745 10.0001 4.12473 10.0001H10.171C11.2897 9.21255 12.6535 8.75006 14.1247 8.75006ZM4.74973 5.62506C4.74973 5.29354 4.88142 4.97559 5.11584 4.74117C5.35026 4.50675 5.66821 4.37506 5.99973 4.37506C6.33125 4.37506 6.64919 4.50675 6.88361 4.74117C7.11803 4.97559 7.24973 5.29354 7.24973 5.62506C7.24973 5.95658 7.11803 6.27452 6.88361 6.50894C6.64919 6.74336 6.33125 6.87506 5.99973 6.87506C5.66821 6.87506 5.35026 6.74336 5.11584 6.50894C4.88142 6.27452 4.74973 5.95658 4.74973 5.62506ZM9.74973 5.62506C9.74973 5.29354 9.88142 4.97559 10.1158 4.74117C10.3503 4.50675 10.6682 4.37506 10.9997 4.37506C11.3312 4.37506 11.6492 4.50675 11.8836 4.74117C12.118 4.97559 12.2497 5.29354 12.2497 5.62506C12.2497 5.95658 12.118 6.27452 11.8836 6.50894C11.6492 6.74336 11.3312 6.87506 10.9997 6.87506C10.6682 6.87506 10.3503 6.74336 10.1158 6.50894C9.88142 6.27452 9.74973 5.95658 9.74973 5.62506ZM7.24973 15.6251C7.24973 14.2438 7.65723 12.9563 8.35848 11.8788H2.63723C2.03739 11.8791 1.46224 12.1177 1.03821 12.5419C0.614175 12.9662 0.375976 13.5415 0.375977 14.1413V15.0026H0.382227C0.424727 15.9776 0.692227 17.1988 1.78598 18.1963C2.97973 19.2876 5.04223 20.0001 8.49973 20.0001C8.60723 20.0001 8.71473 20.0001 8.81973 19.9976C7.80275 18.7676 7.24742 17.221 7.24973 15.6251ZM19.7497 15.6251C19.7497 17.1169 19.1571 18.5476 18.1022 19.6025C17.0473 20.6574 15.6166 21.2501 14.1247 21.2501C12.6329 21.2501 11.2021 20.6574 10.1473 19.6025C9.09236 18.5476 8.49973 17.1169 8.49973 15.6251C8.49973 14.1332 9.09236 12.7025 10.1473 11.6476C11.2021 10.5927 12.6329 10.0001 14.1247 10.0001C15.6166 10.0001 17.0473 10.5927 18.1022 11.6476C19.1571 12.7025 19.7497 14.1332 19.7497 15.6251ZM14.7497 13.1251C14.7497 12.9593 14.6839 12.8003 14.5667 12.6831C14.4495 12.5659 14.2905 12.5001 14.1247 12.5001C13.959 12.5001 13.8 12.5659 13.6828 12.6831C13.5656 12.8003 13.4997 12.9593 13.4997 13.1251V15.0001H11.6247C11.459 15.0001 11.3 15.0659 11.1828 15.1831C11.0656 15.3003 10.9997 15.4593 10.9997 15.6251C10.9997 15.7908 11.0656 15.9498 11.1828 16.067C11.3 16.1842 11.459 16.2501 11.6247 16.2501H13.4997V18.1251C13.4997 18.2908 13.5656 18.4498 13.6828 18.567C13.8 18.6842 13.959 18.7501 14.1247 18.7501C14.2905 18.7501 14.4495 18.6842 14.5667 18.567C14.6839 18.4498 14.7497 18.2908 14.7497 18.1251V16.2501H16.6247C16.7905 16.2501 16.9495 16.1842 17.0667 16.067C17.1839 15.9498 17.2497 15.7908 17.2497 15.6251C17.2497 15.4593 17.1839 15.3003 17.0667 15.1831C16.9495 15.0659 16.7905 15.0001 16.6247 15.0001H14.7497V13.1251Z" fill="white"/>
</svg>
