<svg width="10" height="11" viewBox="0 0 10 11" fill="none" xmlns="http://www.w3.org/2000/svg">
<path fill-rule="evenodd" clip-rule="evenodd" d="M3.46438 5.18404L3.54189 4.84217C3.96819 4.73698 4.60118 4.68439 4.75619 5.092C4.80787 5.24978 4.61409 6.22279 4.60118 6.52522H4.1878C4.17488 6.43318 4.20071 6.42003 4.17488 6.35428C4.07153 6.42003 3.89068 6.63041 3.54189 6.55151C3.06392 6.44632 3.08976 5.72314 3.58065 5.51276C3.80025 5.42072 4.09737 5.42072 4.35573 5.42072C4.34281 5.01311 3.82609 5.14459 3.46438 5.21034V5.18404ZM4.79495 6.13075C4.94996 6.1702 5.64754 6.30169 5.57003 5.98612C5.53128 5.80203 5.09206 5.78888 4.9758 5.55221C4.8337 5.27608 5.00164 4.96051 5.19541 4.85532C5.42793 4.73698 5.8284 4.78958 6.11259 4.80273L6.03509 5.15774C5.78964 5.14459 5.50544 5.05255 5.41502 5.26293C5.37626 5.53906 6.25469 5.47331 5.98341 6.20965C5.89299 6.44632 5.76381 6.49892 5.49253 6.52522C5.19541 6.56466 5.04039 6.53837 4.76911 6.49892L4.79495 6.13075ZM2.98641 6.52522H2.53428C2.58595 6.23594 2.63762 5.95982 2.6893 5.67055C2.72805 5.44702 2.81848 4.98681 2.81848 4.78958L2.09506 6.52522H1.6946L1.57834 4.80273C1.50083 4.93421 1.29414 6.24909 1.25539 6.51207L0.842006 6.52522C0.958269 5.81518 1.15204 5.1183 1.22955 4.39511C1.37165 4.35567 1.79795 4.38196 1.96588 4.38196L1.99172 5.76259C2.09506 5.68369 2.23716 5.22349 2.30175 5.092C2.39218 4.88162 2.52136 4.59234 2.58595 4.38196H3.34812C3.23186 5.0657 3.03808 5.81518 2.98641 6.52522ZM8.24408 8.94459C8.30867 8.81311 8.3991 8.8394 8.45077 8.70792C8.34743 8.70792 8.08906 8.72106 8.02447 8.69477C7.94697 8.66847 7.84362 8.52383 7.80487 8.45809H8.52828C8.72205 8.45809 8.6833 8.47124 8.77372 8.3529C8.83832 8.26086 8.88999 8.23456 8.92874 8.14252H7.52067L7.39149 7.90584L9.1096 7.89269C9.16127 7.7875 9.25169 7.69546 9.27753 7.56397H7.21063L7.09437 7.31414H9.43255L9.56173 6.99857H7.00394C6.92643 6.95913 6.91352 6.82764 6.88768 6.74875L9.65216 6.7356L9.74258 6.42003H9.00625L8.98041 6.49892C8.88999 6.56466 8.61871 6.52522 8.48953 6.52522C8.56703 5.95982 8.72205 5.43387 8.78664 4.78958H9.21294L9.1871 5.0394C9.34212 4.96051 9.25169 4.80273 9.71675 4.78958L9.54881 5.26293C9.27753 5.26293 9.20002 5.34183 9.13543 5.59165H9.6134L9.65216 5.47331C9.69091 5.18404 9.72966 5.1183 9.82009 4.88162L9.80717 4.68439C9.67799 4.65809 6.97811 4.65809 6.81017 4.68439L6.79725 4.77643L7.05562 4.78958C7.0427 5.18404 7.00394 5.17089 6.91352 5.18404H6.71975L6.65515 5.56536L6.99103 5.5785C7.26231 4.44771 8.23116 4.71068 8.43785 5.07885C8.51536 5.22349 8.52828 5.46017 8.48953 5.6311C8.43785 5.88093 8.48953 5.80203 7.41732 5.80203C7.36565 6.03871 7.55942 6.15705 7.74028 6.18335C8.01156 6.23594 8.16657 6.13075 8.38618 6.07816L8.32159 6.47262C8.08906 6.57781 7.6886 6.59096 7.44316 6.51207C7.15896 6.42003 7.05562 6.24909 6.96519 5.95982C6.95227 5.93352 6.95227 5.94667 6.93935 5.88093V5.82833H6.60348C6.56473 5.95982 6.56473 6.05186 6.6164 6.1439L6.88768 6.15705L6.79725 6.51207C6.65515 6.60411 6.28053 6.59096 6.16427 6.45947C5.99633 6.27539 6.21594 5.40757 6.28053 5.092C6.31928 4.89477 6.35804 4.5792 6.39679 4.39511H6.7585C6.87476 4.40826 6.81017 4.36882 6.83601 4.43456H9.74258C9.74258 4.34252 9.69091 4.18473 9.66507 4.10584H6.82309C6.83601 4.0138 6.84893 3.89546 6.92643 3.85601H9.58757L9.49714 3.54044H7.01686L7.10729 3.29061H9.36796L9.21294 2.97504H7.26231C7.28814 2.89615 7.36565 2.75151 7.44316 2.71207H9.045C8.98041 2.60688 8.88999 2.48854 8.8254 2.3965H7.63693C7.6886 2.30446 7.75319 2.21241 7.81778 2.14667H8.52828C8.43785 1.97574 8.257 1.87055 8.17949 1.73906C8.1149 1.72591 7.76611 1.42349 7.6886 1.37089C7.21063 1.05532 6.77142 0.858089 6.21594 0.713452C4.79495 0.345286 3.32228 0.62141 2.19841 1.56812C1.60417 2.06778 1.17788 2.54113 0.829088 3.26432C0.725743 3.4747 0.661153 3.64563 0.570726 3.86916C0.221937 4.77643 0.273609 5.99927 0.570726 6.88023C0.60948 6.99857 0.648234 7.09061 0.686989 7.19581C0.751579 7.37989 1.03578 7.90584 1.15204 8.06362C1.46208 8.49753 1.74627 8.85255 2.18549 9.18127C2.71513 9.58888 3.01225 9.72037 3.60648 9.95705C3.70983 9.9965 3.82609 10.0228 3.92943 10.0491C4.93705 10.3121 6.25469 10.1937 7.15896 9.69407C7.26231 9.64148 7.3269 9.60203 7.43024 9.54944C7.52067 9.49684 7.59818 9.44425 7.70152 9.3785C7.85654 9.28646 8.05031 9.10238 8.20533 8.99719L8.24408 8.94459Z" fill="#E63D24"/>
</svg>
