<svg width="11" height="11" viewBox="0 0 11 11" fill="none" xmlns="http://www.w3.org/2000/svg">
<path fill-rule="evenodd" clip-rule="evenodd" d="M9.92998 6.26225C10.0592 6.36744 9.87831 6.63041 9.72329 6.55152L9.64578 6.49893V6.47263L9.6587 6.23595C9.58119 6.31484 9.60703 6.39374 9.58119 6.35429L9.55535 6.38059C9.58119 6.03872 9.91706 6.11761 9.91706 6.26225H9.92998ZM5.53782 10.22H5.36989C5.09861 10.22 4.82732 10.1937 4.56896 10.1411C4.03932 10.0491 3.40633 9.79927 2.98004 9.51C2.87669 9.44425 2.79918 9.40481 2.70876 9.33906C2.59249 9.24702 2.32121 9.06294 2.23079 8.9446C2.29538 8.81311 2.3858 8.83941 2.43747 8.70792C2.33413 8.70792 2.07577 8.72107 2.01118 8.69477C1.93367 8.66848 1.83032 8.52384 1.79157 8.4581H2.51498C2.70876 8.4581 2.67 8.47124 2.76043 8.35291C2.82502 8.26086 2.87669 8.23457 2.91544 8.14253H1.50737L1.37819 7.90585L3.0963 7.8927C3.14797 7.78751 3.2384 7.69547 3.26423 7.56398H1.19734L1.08107 7.31415H3.41925L3.54843 6.99858H0.990647C0.913138 6.95913 0.90022 6.82765 0.874384 6.74875L3.63886 6.7356L3.72929 6.42003H2.99295L2.96712 6.49893L3.03171 6.11761C3.08338 6.15706 3.01879 6.13076 3.0963 6.15706H3.76804C3.91014 6.47263 4.54313 6.69616 4.96942 6.48578C4.99526 6.26225 5.03401 6.20965 5.05985 6.05187C4.78857 6.10446 4.62064 6.23595 4.32352 6.06502C4.12975 5.94668 4.05224 5.69685 4.11683 5.42073C4.22017 4.98682 4.42686 4.77643 4.85316 4.81588C5.04693 4.82903 5.08569 4.88163 5.2407 4.90792L5.29238 4.51346C5.05985 4.32938 4.46562 4.30308 4.06516 4.61865C3.91014 4.73699 3.92306 4.80273 3.80679 4.92107L3.79388 4.72384C3.6647 4.69754 0.96481 4.69754 0.796875 4.72384L0.848547 4.46086H3.75512C3.75512 4.36882 3.70345 4.21104 3.67761 4.13214H0.835629C0.848547 4.0401 0.861466 3.92176 0.938974 3.88232H3.6001L3.50968 3.56675H1.0294L1.11983 3.31692H3.3805L3.22548 3.00135H1.27485C1.30068 2.92246 1.37819 2.77782 1.4557 2.73837H3.05754C2.99295 2.63318 2.90253 2.51484 2.83794 2.4228H1.64947C1.70114 2.33076 1.76573 2.23872 1.83032 2.17297H2.54082C2.45039 2.00204 2.26954 1.89685 2.19203 1.76536L2.68292 1.3709C2.77335 1.30515 2.85085 1.25256 2.9542 1.19996C3.25132 1.00273 3.50968 0.884394 3.84555 0.766055C4.41395 0.555674 5.18903 0.424186 5.77035 0.48993C6.77796 0.59512 7.83724 0.989584 8.57358 1.68647C8.98696 2.08093 9.28407 2.4228 9.56827 2.90931C9.99457 3.63249 10.24 4.46086 10.24 5.36813C10.24 6.20965 10.1108 6.59097 9.87831 7.24841C9.81371 7.44564 9.54243 7.93214 9.41325 8.11623C9.11614 8.55014 8.74151 8.95775 8.34105 9.26017C7.82433 9.65464 7.51429 9.81242 6.89422 10.036L6.36458 10.1806C6.29999 10.1937 6.22248 10.1937 6.18373 10.2069C5.96412 10.2463 5.74451 10.2595 5.5249 10.2726L5.53782 10.22ZM6.57127 6.28855L6.55835 6.52522L6.13205 6.51207L6.11914 6.36744C6.01579 6.43318 6.00287 6.48578 5.83494 6.52522C4.96942 6.7619 4.81441 5.53906 5.87369 5.46017H6.17081L6.26123 5.42073C6.36458 4.99996 5.64117 5.18405 5.40864 5.21034C5.47323 4.86848 5.43448 4.73699 6.17081 4.77643C7.06216 4.82903 6.55835 5.85464 6.55835 6.30169L6.57127 6.28855ZM6.71337 6.51207C6.8038 5.94668 6.97173 5.36813 7.0234 4.77643H7.4497L7.43678 5.02626C7.55305 4.94737 7.63055 4.76329 7.96642 4.77643C7.91475 4.96052 7.85016 4.98682 7.81141 5.24979C7.43678 5.26294 7.41095 5.35498 7.33344 5.72315C7.28177 5.98612 7.24301 6.2228 7.20426 6.51207H6.71337ZM9.07738 4.98682C9.14197 4.88163 9.18073 4.51346 9.19365 4.36882H9.68453C9.59411 4.94737 9.34866 5.94668 9.30991 6.51207H8.84486L8.85777 6.32799L8.84486 6.34114L8.70276 6.44633C8.28938 6.66986 7.78557 6.45948 7.78557 5.81519C7.78557 4.89477 8.53482 4.6318 8.90945 4.85533C8.98696 4.90792 8.99987 4.94737 9.07738 4.99996V4.98682Z" fill="#EF7F1A"/>
</svg>
