<svg width="18" height="7" viewBox="0 0 18 7" fill="none" xmlns="http://www.w3.org/2000/svg">
<path fill-rule="evenodd" clip-rule="evenodd" d="M2.50231 3.4346C2.43772 3.34256 2.37313 3.18478 2.32145 3.07959C2.1406 2.71142 1.68847 2.13287 1.40427 1.8962C1.15882 1.68582 0.797116 1.38339 0.5 1.26505C0.512918 1.34395 0.551672 1.46229 0.577509 1.54118L1.79181 5.99862H3.3549L5.08593 1.90934C5.16344 1.72526 5.61557 0.699656 5.65433 0.541871H4.09123L2.69608 4.17094C2.67024 4.21038 2.68316 4.19723 2.65732 4.22353C2.64441 4.13149 2.51522 3.50035 2.48939 3.44775L2.50231 3.4346ZM14.8262 2.06713C14.8262 2.21177 14.9812 2.86921 15.02 3.06644C15.0975 3.38201 15.1621 3.72388 15.2396 4.0526H14.064L14.8262 2.06713ZM11.8421 6.02492C13.5473 6.02492 13.2502 6.1564 13.4569 5.63045C13.5085 5.48582 13.5602 5.31488 13.6248 5.18339H15.485C15.4979 5.32803 15.5496 5.47267 15.5754 5.6173C15.6142 5.80139 15.6271 6.01177 15.7304 6.01177C17.1902 6.01177 17.0481 6.10381 16.9706 5.72249C16.9448 5.59101 16.9318 5.51211 16.8931 5.38063C16.8414 5.14395 16.7897 4.92042 16.7381 4.69689L16.1309 1.90934C16.0405 1.44914 15.9371 0.975781 15.8338 0.515573C15.4592 0.515573 14.4645 0.43668 14.1803 0.647061C13.909 0.857442 13.6894 1.50173 13.5602 1.8173C13.431 2.10658 13.3148 2.36955 13.1856 2.67197C13.0693 2.96125 12.9531 3.22422 12.8239 3.50035C12.5397 4.13149 12.0875 5.28858 11.8033 5.84083C11.7646 5.91973 11.7 5.99862 11.8292 5.99862L11.8421 6.02492ZM8.30254 2.17232V2.34325C8.30254 2.9744 9.01303 3.4872 9.47809 3.68443C9.59435 3.73703 9.71061 3.78962 9.82687 3.85537C11.0928 4.55225 9.7752 5.32803 8.25086 4.71004C8.17336 4.67059 7.97958 4.57855 7.88916 4.57855C7.87624 4.74948 7.82457 4.98616 7.78581 5.17024L7.69539 5.77509C7.69539 5.91973 8.87093 6.07751 9.14221 6.07751C9.93022 6.07751 10.5245 6.02492 11.1316 5.60415C11.9454 5.03876 12.3201 3.73703 11.0412 2.9481C10.5761 2.65883 9.82687 2.46159 9.82687 2.04083C9.82687 1.48858 11.1704 1.48858 11.8809 1.8699C11.8938 1.64637 12.0746 0.923186 12.0746 0.673359C11.6742 0.476127 11.0799 0.449829 10.589 0.449829C9.54268 0.449829 8.28962 1.09412 8.28962 2.17232H8.30254ZM5.31845 5.98547H6.80404L7.59204 1.21246C7.60496 1.09412 7.6308 0.988929 7.64371 0.883739C7.66955 0.7654 7.69539 0.66021 7.69539 0.515573H6.22272C6.22272 0.699656 5.51223 4.76263 5.43472 5.28858L5.31845 5.98547Z" fill="#FEFEFE"/>
</svg>
